<?xml version="1.0" encoding="UTF-8" standalone="no"?>
<!-- Created with Inkscape (http://www.inkscape.org/) -->

<svg
   width="19.705759mm"
   height="18.869541mm"
   viewBox="0 0 19.705761 18.869542"
   version="1.1"
   id="svg5"
   inkscape:version="1.2 (dc2aeda, 2022-05-15)"
   sodipodi:docname="icon.svg"
   inkscape:export-filename="logo_200pxh.png"
   inkscape:export-xdpi="269.22"
   inkscape:export-ydpi="269.22"
   xmlns:inkscape="http://www.inkscape.org/namespaces/inkscape"
   xmlns:sodipodi="http://sodipodi.sourceforge.net/DTD/sodipodi-0.dtd"
   xmlns="http://www.w3.org/2000/svg"
   xmlns:svg="http://www.w3.org/2000/svg">
  <sodipodi:namedview
     id="namedview7"
     pagecolor="#ffffff"
     bordercolor="#000000"
     borderopacity="0.25"
     inkscape:showpageshadow="2"
     inkscape:pageopacity="0.0"
     inkscape:pagecheckerboard="0"
     inkscape:deskcolor="#d1d1d1"
     inkscape:document-units="mm"
     showgrid="false"
     inkscape:zoom="4.5506012"
     inkscape:cx="-19.887482"
     inkscape:cy="53.289663"
     inkscape:window-width="1920"
     inkscape:window-height="1027"
     inkscape:window-x="1792"
     inkscape:window-y="65"
     inkscape:window-maximized="1"
     inkscape:current-layer="layer1" />
  <defs
     id="defs2" />
  <g
     inkscape:label="Capa 1"
     inkscape:groupmode="layer"
     id="layer1"
     transform="translate(-29.358004,-102.36455)">
    <path
       style="fill:#000000;stroke:#000000;stroke-width:1.60426;stroke-linecap:round;stroke-linejoin:round;stroke-dasharray:none;paint-order:markers stroke fill"
       d="m 33.74922,109.40117 -0.01519,-3.26966 c 0.01747,-0.87364 -0.156841,-1.09124 -0.142003,-1.92821 -0.01154,-1.2478 0.05642,-1.25 1.289387,0 l 0.558734,0.70288 c 2.593097,-0.45139 5.186197,-0.30362 7.779295,0.0353 l 0.816613,-1.05432 c 1.260329,-1.6272 1.122994,-0.0544 1.031509,0.33928 l -0.327377,1.40876 0.01824,3.75332 0.357154,2.71221 -6.108142,0.81856 -4.952177,-1.37343 -0.125659,-0.88058 c -0.404425,0.52198 -0.120259,-0.84273 -0.180389,-1.2641 z"
       id="path1947"
       sodipodi:nodetypes="ccccccsscccccccc" />
    <g
       id="g5084"
       transform="matrix(0.99835581,0,0,1.0257788,-0.21190288,-3.3083275)">
      <ellipse
         style="fill:#000000;stroke:#ffffff;stroke-width:1.44956;stroke-linecap:round;stroke-linejoin:round;stroke-dasharray:none"
         id="path297-9"
         cx="42.103279"
         cy="107.78545"
         rx="1.2714149"
         ry="1.2654408" />
      <ellipse
         style="fill:#000000;stroke:#ffffff;stroke-width:1.40309;stroke-linecap:round;stroke-linejoin:round;stroke-dasharray:none"
         id="path297-9-0"
         cx="37.046642"
         cy="107.78209"
         rx="1.233022"
         ry="1.2225229" />
    </g>
    <path
       style="fill:#ffffff;stroke:#000000;stroke-width:2.26168;stroke-linecap:round;stroke-linejoin:round;stroke-dasharray:none;paint-order:markers stroke fill"
       d="m 31.272472,111.16017 v 7.01538 c 3.010217,0.43521 5.119398,1.34221 7.574231,1.5923 0.07301,-1.62592 -0.02497,-3.57177 -0.154421,-7.22213 z"
       id="path63"
       sodipodi:nodetypes="ccccc" />
    <path
       style="fill:#ffffff;stroke:#000000;stroke-width:2.26168;stroke-linecap:round;stroke-linejoin:round;stroke-dasharray:none;paint-order:markers stroke fill"
       d="m 31.272472,111.16017 v 7.01538 c 3.010217,0.43521 5.119398,1.34221 7.574231,1.5923 0.07301,-1.62592 -0.02497,-3.57177 -0.154421,-7.22213 z"
       id="path4984"
       sodipodi:nodetypes="ccccc" />
    <path
       style="fill:#ffffff;stroke:#000000;stroke-width:1.80636;stroke-linecap:round;stroke-linejoin:round;stroke-dasharray:none;paint-order:markers stroke fill"
       d="m 30.699118,110.27636 8.346132,1.73644 v 8.31813 l -8.318125,-1.68044 z"
       id="path5040" />
    <path
       style="fill:#ffffff;stroke:#000000;stroke-width:1.80636;stroke-linecap:round;stroke-linejoin:round;stroke-dasharray:none;paint-order:markers stroke fill"
       d="m 47.906031,110.27486 -8.346133,1.73645 v 8.31813 l 8.318125,-1.68045 z"
       id="path5042" />
    <path
       style="fill:#000000;stroke:#000000;stroke-width:1.4083;stroke-linecap:round;stroke-linejoin:round;stroke-dasharray:none;paint-order:markers stroke fill"
       d="m 30.222131,112.78067 c -0.05673,0.15127 1.10496,0.37737 1.564907,0.48736 1.634488,0.0639 1.363019,1.76974 0.02907,1.41231 l -1.62221,-0.43468 c -0.09103,-0.56366 -0.183284,-1.12824 0.02823,-1.46499 z"
       id="path5044"
       sodipodi:nodetypes="ccscc" />
    <path
       style="fill:#000000;stroke:#000000;stroke-width:1.4083;stroke-linecap:round;stroke-linejoin:round;stroke-dasharray:none;paint-order:markers stroke fill"
       d="m 48.199633,112.69346 c 0.05673,0.15127 -1.10496,0.37737 -1.564907,0.48736 -1.634488,0.0639 -1.363019,1.76974 -0.02907,1.41231 l 1.62221,-0.43468 c 0.09103,-0.56366 0.183284,-1.12824 -0.02823,-1.46499 z"
       id="path5044-7"
       sodipodi:nodetypes="ccscc" />
  </g>
</svg>
