<?xml version="1.0" encoding="UTF-8" standalone="no"?>
<!-- Created with Inkscape (http://www.inkscape.org/) -->

<svg
   width="19.684566mm"
   height="18.481951mm"
   viewBox="0 0 19.684567 18.481952"
   version="1.1"
   id="svg5"
   inkscape:version="1.2 (dc2aeda, 2022-05-15)"
   sodipodi:docname="icon.svg"
   inkscape:export-filename="logo_24pxh.png"
   inkscape:export-xdpi="35.029999"
   inkscape:export-ydpi="35.029999"
   xmlns:inkscape="http://www.inkscape.org/namespaces/inkscape"
   xmlns:sodipodi="http://sodipodi.sourceforge.net/DTD/sodipodi-0.dtd"
   xmlns="http://www.w3.org/2000/svg"
   xmlns:svg="http://www.w3.org/2000/svg">
  <sodipodi:namedview
     id="namedview7"
     pagecolor="#ffffff"
     bordercolor="#000000"
     borderopacity="0.25"
     inkscape:showpageshadow="2"
     inkscape:pageopacity="0.0"
     inkscape:pagecheckerboard="0"
     inkscape:deskcolor="#d1d1d1"
     inkscape:document-units="mm"
     showgrid="false"
     inkscape:zoom="9.1012023"
     inkscape:cx="23.568315"
     inkscape:cy="40.599032"
     inkscape:window-width="1920"
     inkscape:window-height="1027"
     inkscape:window-x="1792"
     inkscape:window-y="65"
     inkscape:window-maximized="1"
     inkscape:current-layer="layer1" />
  <defs
     id="defs2" />
  <g
     inkscape:label="Capa 1"
     inkscape:groupmode="layer"
     id="layer1"
     transform="translate(-29.344394,-102.75214)">
    <path
       style="fill:#000000;stroke:#000000;stroke-width:1.58528;stroke-linecap:round;stroke-linejoin:round;stroke-dasharray:none;paint-order:markers stroke fill"
       d="m 33.739992,109.52814 -0.01521,-3.18749 c 0.0175,-0.85168 -0.1571,-1.06381 -0.142237,-1.87975 -0.01156,-1.21644 0.05651,-1.21858 1.29151,0 l 0.559654,0.68522 c 2.597368,-0.44005 5.194738,-0.29599 7.792107,0.0344 l 0.817958,-1.02782 c 1.072281,-1.34744 1.026859,-0.0921 1.033208,0.27407 l -0.327916,1.43004 0.01827,3.65899 0.357742,2.64405 -6.118202,0.79799 -4.960332,-1.33891 -0.125866,-0.85845 c -0.405091,0.50886 -0.120457,-0.82156 -0.180686,-1.23234 z"
       id="path1947"
       sodipodi:nodetypes="ccccccssccccccc" />
    <g
       id="g5084"
       transform="translate(-0.27706202,-0.34885501)">
      <ellipse
         style="fill:#000000;stroke:#ffffff;stroke-width:1.44956;stroke-linecap:round;stroke-linejoin:round;stroke-dasharray:none"
         id="path297-9"
         cx="42.103279"
         cy="107.78545"
         rx="1.2714149"
         ry="1.2654408" />
      <ellipse
         style="fill:#000000;stroke:#ffffff;stroke-width:1.40309;stroke-linecap:round;stroke-linejoin:round;stroke-dasharray:none"
         id="path297-9-0"
         cx="37.046642"
         cy="107.78209"
         rx="1.233022"
         ry="1.2225229" />
    </g>
    <path
       style="fill:#ffffff;stroke:#000000;stroke-width:2.26168;stroke-linecap:round;stroke-linejoin:round;stroke-dasharray:none;paint-order:markers stroke fill"
       d="m 31.272472,111.16017 v 7.01538 c 3.010217,0.43521 5.119398,1.34221 7.574231,1.5923 0.07301,-1.62592 -0.02497,-3.57177 -0.154421,-7.22213 z"
       id="path63"
       sodipodi:nodetypes="ccccc" />
    <path
       style="fill:#ffffff;stroke:#000000;stroke-width:2.26168;stroke-linecap:round;stroke-linejoin:round;stroke-dasharray:none;paint-order:markers stroke fill"
       d="m 31.272472,111.16017 v 7.01538 c 3.010217,0.43521 5.119398,1.34221 7.574231,1.5923 0.07301,-1.62592 -0.02497,-3.57177 -0.154421,-7.22213 z"
       id="path4984"
       sodipodi:nodetypes="ccccc" />
    <path
       style="fill:#ffffff;stroke:#000000;stroke-width:1.80636;stroke-linecap:round;stroke-linejoin:round;stroke-dasharray:none;paint-order:markers stroke fill"
       d="m 30.699118,110.27636 8.346132,1.73644 v 8.31813 l -8.318125,-1.68044 z"
       id="path5040" />
    <path
       style="fill:#ffffff;stroke:#000000;stroke-width:1.80636;stroke-linecap:round;stroke-linejoin:round;stroke-dasharray:none;paint-order:markers stroke fill"
       d="m 47.906031,110.27486 -8.346133,1.73645 v 8.31813 l 8.318125,-1.68045 z"
       id="path5042" />
    <path
       style="fill:#000000;stroke:#000000;stroke-width:1.4083;stroke-linecap:round;stroke-linejoin:round;stroke-dasharray:none;paint-order:markers stroke fill"
       d="m 30.076775,112.7516 c -0.05673,0.15127 1.134031,0.17387 1.593978,0.28386 1.634488,0.0639 1.333948,1.97324 0,1.61581 l -1.62221,-0.43468 z"
       id="path5044"
       sodipodi:nodetypes="ccscc" />
    <path
       style="fill:#000000;stroke:#000000;stroke-width:1.4083;stroke-linecap:round;stroke-linejoin:round;stroke-dasharray:none;paint-order:markers stroke fill"
       d="m 48.29658,112.25649 c 0.05674,0.15127 -1.134033,0.17387 -1.593979,0.28386 -1.634489,0.0639 -1.333948,1.97325 0,1.61581 l 1.622211,-0.43467 z"
       id="path5044-2"
       sodipodi:nodetypes="ccscc" />
  </g>
</svg>
